<?xml version="1.0" standalone="no"?>
<!DOCTYPE svg PUBLIC "-//W3C//DTD SVG 20010904//EN"
 "http://www.w3.org/TR/2001/REC-SVG-20010904/DTD/svg10.dtd">
<svg version="1.0" xmlns="http://www.w3.org/2000/svg"
 width="512.000000pt" height="512.000000pt" viewBox="0 0 512.000000 512.000000"
 preserveAspectRatio="xMidYMid meet">
<metadata>
Created by potrace 1.11, written by Peter Selinger 2001-2013
</metadata>
<g transform="translate(0.000000,512.000000) scale(0.100000,-0.100000)"
fill="#000000" stroke="none">
<path d="M936 4702 c-94 -24 -180 -97 -225 -192 -25 -54 -26 -58 -29 -332 -3
-204 -7 -278 -15 -279 -7 -1 -30 0 -52 1 -22 1 -37 -1 -34 -4 3 -3 26 -6 52
-7 l47 -2 0 -328 0 -328 -107 -4 -108 -3 108 -2 107 -2 0 -328 0 -328 -100 1
c-54 0 -97 -2 -94 -5 3 -3 47 -5 97 -5 l92 0 3 -327 2 -327 -107 -4 -108 -3
108 -2 107 -2 0 -329 0 -330 -101 2 c-55 1 -102 0 -104 -3 -2 -4 38 -7 88 -7
51 -1 98 -2 105 -2 9 -1 12 -58 12 -251 0 -141 5 -271 11 -300 22 -105 124
-214 234 -251 56 -18 3054 -22 3128 -3 104 27 178 89 230 194 l32 65 2 370 c0
203 2 373 2 378 1 4 49 7 107 7 89 0 112 3 143 21 77 44 87 80 85 309 -1 183
-10 218 -63 258 -40 29 -72 36 -178 35 -51 0 -93 3 -94 6 -6 35 -2 124 6 130
5 4 56 8 113 9 118 1 155 16 193 79 20 32 22 49 23 202 1 184 -5 240 -31 275
-36 49 -71 61 -192 66 l-115 5 -1 60 c-1 33 0 65 2 70 2 6 41 10 96 10 137 -2
187 18 224 88 24 46 24 397 1 442 -40 75 -85 95 -219 95 -54 0 -99 3 -100 8
-4 30 -3 115 1 122 3 4 55 9 116 11 103 4 113 6 147 32 65 49 70 69 71 276 1
210 -6 238 -69 287 -36 27 -42 28 -151 29 -63 0 -114 2 -115 5 0 3 -3 25 -5
50 -12 123 -115 248 -239 291 -58 19 -3061 21 -3139 1z"/>
<path d="M470 3897 c9 -8 100 -15 100 -8 0 4 -24 8 -52 10 -29 1 -50 0 -48 -2z"/>
</g>
</svg>
